<svg width="150" height="46" viewBox="0 0 150 46" fill="none" xmlns="http://www.w3.org/2000/svg">
<path d="M142.482 0.348633C141.567 0.751072 140.488 1.86693 140.104 2.76327C139.756 3.60473 139.738 5.47058 140.085 6.27546C140.451 7.13522 141.421 8.1779 142.28 8.61693C142.848 8.90961 143.36 9.00107 144.366 8.98278C146.268 8.96449 147.476 8.36083 148.39 6.97058C149.012 6.03766 149.067 5.85473 149.049 4.66571C149.03 2.59863 148.189 1.29985 146.323 0.421803C145.189 -0.108684 143.561 -0.14527 142.482 0.348633Z" fill="#04345C"/>
<path d="M66.5671 8.03157C64.7744 8.89133 64.3171 9.82426 64.061 13.2999C63.9695 14.6718 63.8598 15.8425 63.8232 15.8791C63.7866 15.9157 63.0915 16.0072 62.2866 16.0986C60.4756 16.2633 59.6707 16.7023 58.7561 17.9279C57.7317 19.3182 57.622 20.9096 58.4268 22.4828C59.1768 23.9279 60.4756 24.6779 62.3049 24.6779C62.9451 24.6779 63.5671 24.7511 63.6951 24.8243C63.8598 24.9523 63.9329 26.7084 64.0061 32.4706C64.061 36.5864 64.1341 40.4279 64.189 41.0133C64.4085 43.5925 66.5305 45.4035 69.0366 45.1108C70.9573 44.873 72.3659 43.6657 72.8963 41.7999C72.9878 41.4889 73.061 37.9584 73.061 33.9157C73.061 29.8913 73.1159 26.2145 73.189 25.7389L73.2805 24.8791L74.3232 24.7694C76.5915 24.5316 78.0732 23.745 78.7866 22.3913C79.3902 21.2572 79.3354 19.2999 78.6768 18.3121C77.7439 16.8852 76.6098 16.2816 74.6159 16.0986C73.1159 15.9706 73.1159 15.9706 73.0793 13.3913C73.061 10.995 72.7866 9.9706 71.9817 9.07426C71.6341 8.67182 70.9756 8.19621 70.5366 8.01328C69.4573 7.53767 67.5549 7.55596 66.5671 8.03157Z" fill="#04345C"/>
<path d="M23.3415 11.9462C22.0061 12.3852 21.311 13.0621 20.5427 14.7267C19.8659 16.1352 18.2744 20.1962 17.7256 21.8426C17.5976 22.245 17.2683 23.1413 16.9939 23.8548C16.7195 24.5499 16.2805 25.7938 15.9878 26.5987C15.2561 28.7389 14.689 29.9828 14.4512 29.9828C14.3415 29.9828 13.9756 29.2694 13.628 28.373C12.4573 25.3365 11.7439 23.4889 11.0671 21.6596C8.19512 14.1413 8.10366 13.9035 7.17073 13.0255C5.54268 11.4706 2.7622 11.4706 1.13415 13.0438C0.27439 13.8669 4.1061e-09 14.5804 4.1061e-09 15.9889C0.0182927 17.3791 0.0731707 17.5438 1.95732 22.2084C2.61585 23.8182 4.60976 28.7938 6.38415 33.2755C8.17683 37.7572 9.78659 41.745 9.9878 42.1474C11.4512 45.0194 13.8476 45.9889 16.3902 44.745C18.2744 43.8121 18.5671 43.2816 21.75 34.9218C22.1707 33.7694 23.0488 31.6291 23.6707 30.1657C24.2927 28.7023 25.1707 26.5621 25.628 25.4096C26.0671 24.2572 27 21.9523 27.6585 20.2877C28.7195 17.6535 28.8659 17.123 28.8841 16.0804C28.8841 14.3974 28.1524 13.0804 26.872 12.3852C25.7378 11.7816 24.3841 11.6169 23.3415 11.9462Z" fill="#04345C"/>
<path d="M142.683 15.4218C141.348 15.9889 140.488 16.812 140.067 17.8913C139.756 18.6596 139.738 19.684 139.738 30.1657V41.5986L140.177 42.495C140.854 43.8486 141.823 44.7267 143.067 45.0925C144.055 45.3852 144.201 45.3852 145.262 45.1108C147.037 44.6535 147.75 44.1047 148.463 42.6596L149.067 41.4157V30.2572C149.067 19.9401 149.03 19.0255 148.719 18.1291C148.299 16.8852 147.677 16.1718 146.543 15.6047C145.207 14.9096 144.018 14.873 142.683 15.4218Z" fill="#04345C"/>
<path d="M88.811 15.4401C86.3963 15.8974 85.5366 16.2633 84.4573 17.2328C82.3354 19.1901 82.0061 21.4584 83.6158 23.2328C84.8049 24.5499 84.9695 24.5864 89.0671 24.6047C93.2012 24.6047 93.6402 24.7145 94.7378 25.9035C95.378 26.5986 95.7439 27.4767 95.7439 28.3547C95.7439 29.6169 94.0793 29.7999 92.0122 28.7938C89.7073 27.6413 87.128 27.7877 84.6585 29.1596C82.2622 30.495 80.7439 33.2389 80.7439 36.184C80.7439 40.2633 84 44.1413 88.3354 45.2572C90.6402 45.8425 93.9146 45.4584 96.2561 44.3243L97.6097 43.6657L98.3597 44.1962C99.9512 45.3121 101.524 45.623 103.024 45.0925C104.195 44.6718 104.854 44.0865 105.402 42.9706L105.896 41.9645V34.6474C105.896 27.623 105.878 27.2755 105.476 25.7755C103.756 19.3547 98.8354 15.4584 92.1768 15.2389C90.9329 15.2023 89.6341 15.2755 88.811 15.4401ZM94.7927 32.434C96.3658 33.2572 96.8597 35.1047 95.9268 36.6596C95.4512 37.4462 94.6463 37.8486 93.3293 37.9584C92.3232 38.0499 92.1037 38.0133 91.5366 37.6291C90.5122 36.934 90.0732 36.1291 90.0732 34.9035C90.0732 34.0255 90.1463 33.7511 90.5671 33.2572C90.8415 32.9462 91.3171 32.5621 91.628 32.434C92.3597 32.1047 94.1707 32.1047 94.7927 32.434Z" fill="#04345C"/>
<path d="M118.518 15.4401C115.134 16.0621 113.378 17.2145 112.427 19.4279C111.768 20.9462 112.537 23.0682 114.11 24.0377L115.006 24.5865L118.591 24.6047C122.36 24.6413 122.799 24.7145 123.86 25.5194C124.683 26.1413 125.049 26.9462 125.085 28.0987C125.104 29.2511 124.939 29.434 123.695 29.434C123.055 29.434 122.616 29.2877 121.957 28.8852C120.622 28.0621 119.012 27.7694 117.201 28.0621C115.39 28.3547 114.091 29.0133 112.738 30.2938C108.549 34.2816 109.738 40.8669 115.244 44.1962C118.116 45.934 122.982 45.934 126.11 44.2145L127.152 43.6474L127.866 44.2145C130.39 46.2267 133.829 45.4035 134.835 42.5682C135.128 41.6901 135.165 40.9035 135.165 34.2816C135.165 27.2023 135.146 26.9096 134.744 25.5194C133.628 21.6779 130.902 18.184 127.866 16.7206C125.085 15.3852 121.5 14.8913 118.518 15.4401ZM124.774 32.7084C125.396 33.1657 125.927 34.245 125.927 35.0316C125.927 35.6718 125.305 36.806 124.646 37.3547C123.604 38.2328 121.518 38.2511 120.604 37.373C118.994 35.8365 119.287 33.4584 121.189 32.4889C122.104 32.0133 124.006 32.1413 124.774 32.7084Z" fill="#04345C"/>
<path d="M40.2256 15.7145C36.6402 16.5743 34.6463 17.7816 32.3049 20.5255C30.4573 22.684 29.3781 25.0438 28.8659 28.0987C28.5915 29.6535 28.5915 30.1291 28.7927 31.6291C29.1768 34.6109 30 36.7511 31.5915 38.8548C33.6402 41.5804 36.439 43.5377 39.6037 44.4706C41.5976 45.056 45 45.056 46.9024 44.4706C50.5793 43.2999 53.6341 41.0133 55.4634 38.0316C56.872 35.7267 57.4939 33.6413 57.6402 30.7145C57.75 28.3913 57.4207 26.5438 56.5244 24.3121C54.9878 20.5438 50.7805 16.8487 46.811 15.7877C45.0549 15.3304 41.9634 15.2938 40.2256 15.7145ZM45.4756 25.0072C46.5732 25.556 47.6159 26.617 48.128 27.7511C48.7683 29.1413 48.7683 31.1901 48.128 32.5987C47.5061 33.9523 46.5366 34.9767 45.4024 35.4706C44.5976 35.8182 44.2134 35.8731 42.9329 35.7999C41.5244 35.7267 41.3415 35.6718 40.372 34.995C39.0183 34.0621 38.3963 33.1291 38.0122 31.4828C37.5549 29.4706 38.0122 27.6231 39.2927 26.1779C39.7683 25.6291 41.0854 24.8609 41.8354 24.6596C42.7866 24.4218 44.6159 24.6048 45.4756 25.0072Z" fill="#04345C"/>
</svg>
