<?xml version="1.0" encoding="UTF-8"?>
<svg version="1.1" viewBox="0 0 1914 1076" width="1280" height="1280" xmlns="http://www.w3.org/2000/svg">
<path transform="translate(0)" d="m0 0h1914v1076h-1914z" fill="#089171"/>
<path transform="translate(1911,399)" d="m0 0h3v677h-1914v-164l14-24 20-30 16-21 9-11 12-14 12-13 15-16 12-11 15-14 11-9 16-13 19-14 33-22 24-14 27-14 19-9 30-12 33-11 31-8 36-7 34-4 37-2h94l50 3 47 5 40 6 50 10 44 11 41 12 55 18 43 15 50 17 33 10 34 9 33 7 40 6 36 3h62l35-3 34-5 36-8 29-8 32-11 29-12 24-11 28-14 41-24 25-16 20-14 17-12 19-14 21-16 13-10 28-22 15-12 14-11 36-28 18-13 17-12 19-12 22-13 24-13 28-14 33-14z" fill="#06706A"/>
</svg>
