<svg width="143" height="130" viewBox="0 0 143 130" fill="none" xmlns="http://www.w3.org/2000/svg">
<path d="M96.4583 0.274834C95.4398 0.645205 93.3333 2.49706 88.2639 7.45076L84.5139 11.1082L82.2454 9.88132C77.5926 7.38132 77.4074 7.31187 75.7639 7.19613C72.7778 6.9878 69.9537 8.67761 68.588 11.5017C68.0556 12.5897 67.9398 13.0989 67.9398 14.6498C67.9398 16.2008 68.0556 16.71 68.5648 17.7748C68.912 18.4924 69.4907 19.3489 69.838 19.673C70.3935 20.1822 79.537 25.6684 81.8519 26.8721C83.7037 27.8211 86.8056 27.5434 88.3796 26.2702C88.8657 25.8535 92.7546 22.4739 97.0139 18.7471C106.019 10.8535 106.134 10.7378 106.134 7.49706C106.134 5.92298 106.019 5.41372 105.486 4.32576C104.769 2.84428 103.333 1.40909 101.806 0.622057C100.556 -0.0260906 97.7546 -0.211277 96.4583 0.274834Z" fill="#04345C"/>
<path d="M105.787 29.9739C105.37 30.2749 93.1945 40.4137 88.8657 44.0943C88.5185 44.3721 88.0324 44.1869 84.8148 42.5897C82.7778 41.5712 79.3056 39.9508 77.0833 38.9554C74.8611 37.9832 70.9259 36.2471 68.3565 35.1128C63.2407 32.8675 62.4769 32.7054 60.8796 33.5156C60.3704 33.7702 59.6759 34.4184 59.3287 34.9508L58.6806 35.923L58.6111 77.798C58.5648 107.15 58.4722 119.812 58.3102 120.136C58.0787 120.553 57.9167 120.599 56.6435 120.437C55.8565 120.367 55.162 120.229 55.0926 120.159C55.0232 120.113 54.9306 109.881 54.8611 97.4508C54.7454 76.9878 54.6991 74.7656 54.3519 74.1406C53.5648 72.7054 52.3148 71.9415 50.7407 71.9415C49.9769 71.9647 49.3056 72.4276 44.9074 76.0156C42.1759 78.2378 38.1713 81.4786 36.0417 83.2147L32.1528 86.3628L28.287 84.5573C22.5 81.8489 20.5787 81.0156 12.5463 77.7054C5.60185 74.835 5.13889 74.673 3.88889 74.7656C2.29167 74.8813 1.08796 75.7147 0.439815 77.1267C0.0231481 78.0295 0 79.1406 0 102.104C0 125.645 0 126.154 0.462963 127.034C0.717593 127.52 1.2963 128.215 1.78241 128.585L2.61574 129.233L70.8796 129.303C139.005 129.349 139.144 129.349 140.046 128.886C140.556 128.631 141.25 127.983 141.597 127.451L142.245 126.479V89.0712V51.6637L141.597 50.6684C140.532 49.048 138.449 48.3999 136.736 49.1175C136.319 49.2795 130.509 53.9786 123.843 59.5341L111.69 69.6499L111.574 51.0387L111.458 32.4508L110.81 31.4554C109.722 29.8119 107.13 29.048 105.787 29.9739ZM104.005 81.3628L104.097 120.553H99.0509H93.9815V85.1591V49.7425L98.912 45.6684C101.597 43.4462 103.843 41.7332 103.866 41.8952C103.889 42.0573 103.958 59.835 104.005 81.3628ZM76.3426 47.0573L85.4167 51.4091V85.9924V120.553H75.9722H66.5046L66.3657 100.02C66.1574 74.6961 66.1574 43.5387 66.3426 42.8443C66.4583 42.4508 66.5741 42.3813 66.875 42.5202C67.0833 42.6128 71.3426 44.673 76.3426 47.0573ZM134.676 91.4323L134.606 120.437L129.954 120.506L125.301 120.553L125.162 112.752C125.069 108.446 125 97.1036 125 87.5665V70.2054L129.699 66.3397C132.269 64.2332 134.444 62.4739 134.56 62.4739C134.653 62.4508 134.699 75.5063 134.676 91.4323ZM18.0556 87.8674L28.588 92.7054L28.6574 106.617L28.7037 120.553H18.0556H7.40741V113.654C7.40741 109.858 7.33796 101.409 7.24537 94.9045C7.15278 87.4045 7.17593 83.0526 7.31482 83.0526C7.4537 83.0526 12.2685 85.2286 18.0556 87.8674ZM46.9907 102.474V120.529L42.3148 120.599C39.7222 120.645 37.5926 120.668 37.5926 120.668C37.5694 120.668 37.5 114.21 37.4537 106.293L37.338 91.9184L42.1065 88.1915C44.7222 86.1313 46.8982 84.4415 46.9444 84.4415C46.9676 84.4415 46.9907 92.5665 46.9907 102.474Z" fill="#04345C"/>
<path d="M36.5509 37.7054C35.4398 38.0295 34.2593 39.0249 28.8657 44.21L24.3055 48.6082L22.5694 47.6591C21.6204 47.1267 20.0231 46.2702 19.0509 45.7147C17.2917 44.7656 17.1759 44.7425 15.162 44.7425C12.7083 44.7425 11.4583 45.2517 9.8611 46.8489C8.26388 48.4462 7.75462 49.6962 7.75462 52.1499C7.75462 53.9786 7.84722 54.3952 8.37962 55.4137C8.72685 56.0619 9.30555 56.8952 9.67592 57.2656C10.3472 57.9369 20.0463 63.6313 22.0139 64.5341C23.2407 65.0665 24.9537 65.136 26.5278 64.6499C27.4537 64.3721 28.3796 63.7008 31.3889 61.0156C33.4491 59.1869 37.2685 55.8304 39.9074 53.5387C45.5787 48.6082 45.9491 48.0758 45.9491 44.9739C45.9491 42.7749 45.2778 41.085 43.8657 39.6499C42.1065 37.8906 38.912 37.0573 36.5509 37.7054Z" fill="#04345C"/>
<path d="M86.1637 31.121C81.517 35.303 77.73 38.7879 77.73 38.9041C77.73 38.997 80.1695 40.2981 83.1433 41.7618C87.7668 44.0387 88.6264 44.3872 88.9749 44.1316C90.1133 43.3417 106.191 29.6805 106.191 29.5411C106.191 29.332 95.1317 23.5237 94.7135 23.5237C94.6438 23.5237 90.7871 26.939 86.1637 31.121Z" fill="#0BD28D"/>
<path d="M99.0349 45.6418L94.1327 49.6612V85.2545L94.1094 120.871H99.244H104.379L104.216 81.3049C104.123 59.5585 104.007 41.7386 103.984 41.6921C103.96 41.6689 101.73 43.4346 99.0349 45.6418Z" fill="#0BD28D"/>
<path d="M66.3689 42.877C66.1831 43.574 66.1831 83.7908 66.3922 104.306L66.5316 120.871H76.034H85.5131V86.1606V51.4733L76.1734 46.9893C71.0156 44.5266 66.7407 42.4588 66.671 42.4356C66.578 42.3891 66.4619 42.575 66.3689 42.877Z" fill="#0BD28D"/>
<path d="M129.958 66.4356L125.242 70.3155V95.5933V120.871H130.121H135V91.7134C135 75.6824 134.93 62.5556 134.837 62.5556C134.721 62.5788 132.537 64.3213 129.958 66.4356Z" fill="#0BD28D"/>
<path d="M28.1734 72.8247C23.55 76.9603 19.763 80.422 19.7397 80.5614C19.7165 80.6776 19.8559 80.8635 20.0185 80.9564C21.1802 81.6302 31.914 86.5091 32.0998 86.4394C32.611 86.2768 50.1289 71.9419 49.9895 71.8025C49.8733 71.6631 36.7697 65.3436 36.6071 65.3436C36.5606 65.3436 32.7736 68.7125 28.1734 72.8247Z" fill="#0BD28D"/>
<path d="M7.05436 96.9871C7.14729 104.561 7.21699 113.041 7.21699 115.806V120.871H17.9043H28.5916L28.5451 106.884L28.4754 92.898L17.9275 88.0655C12.1424 85.4169 7.28669 83.233 7.14729 83.233C6.98466 83.233 6.96142 87.5544 7.05436 96.9871Z" fill="#0BD28D"/>
<path d="M41.9508 88.391L37.1415 92.178L37.3041 106.583C37.397 114.505 37.49 121.011 37.5132 121.034C37.5132 121.057 39.6507 121.011 42.2528 120.941L46.9459 120.801V103.074C46.9459 93.3397 47.0156 85.208 47.0853 84.9989C47.155 84.7898 47.1318 84.6272 47.0156 84.6272C46.8994 84.6272 44.6226 86.3232 41.9508 88.391Z" fill="#0BD28D"/>
</svg>
