<svg width="70" height="70" viewBox="0 0 70 70" fill="none" xmlns="http://www.w3.org/2000/svg">
<path fill-rule="evenodd" clip-rule="evenodd" d="M19.375 54.069C19.375 54.069 16.25 54.069 16.25 50.9212C16.25 47.7734 19.375 38.33 35 38.33C50.625 38.33 53.75 47.7734 53.75 50.9212C53.75 54.069 50.625 54.069 50.625 54.069H19.375ZM35 35.1823C37.4864 35.1823 39.871 34.1873 41.6291 32.4164C43.3873 30.6454 44.375 28.2434 44.375 25.7389C44.375 23.2344 43.3873 20.8324 41.6291 19.0614C39.871 17.2905 37.4864 16.2955 35 16.2955C32.5136 16.2955 30.129 17.2905 28.3709 19.0614C26.6127 20.8324 25.625 23.2344 25.625 25.7389C25.625 28.2434 26.6127 30.6454 28.3709 32.4164C30.129 34.1873 32.5136 35.1823 35 35.1823Z" fill="#EBE5FC"/>
<circle cx="35" cy="35" r="34" stroke="#EBE5FC" stroke-width="2"/>
</svg>
