<?xml version="1.0" encoding="UTF-8"?>
<svg version="1.1" viewBox="0 0 1871 2048" width="1280" height="1280" xmlns="http://www.w3.org/2000/svg">
<path transform="translate(0)" d="m0 0h1871v2048h-1871z" fill="#149477"/>
<path transform="translate(0)" d="m0 0h1871v506l-9 3-63 13-63 11-66 10-61 8-77 8-58 5-75 5-82 4-54 2-86 2-58 1-91 1-220 2-97 2-86 3-71 4-64 5-58 6-47 6-57 9-52 10-31 7-35 9-34 10-36 12-35 13-28 12-24 11-19 10-26 14-6 4h-2z" fill="#149477"/>
<path transform="translate(1870,506)" d="m0 0h1v652l-37-6-124-21-104-16-83-12-77-10-81-9-65-6-67-5-80-4-32-1h-125l-51 2-62 4-60 6-52 7-53 9-43 9-42 10-37 10-30 9-44 15-41 16-35 15-25 12-16 8-27 14-24 14-22 13-24 16-16 11-10 7-1 2 5 1 26 12 1 2-30 14-28 13-3 1v-22l-10 8-13 11-11 9-14 13-8 7-8 8-8 7-15 15-7 8-9 9-7 8-10 11-9 11-11 13-13 17-14 18-14 20-26 39-13 21-16 28-14 26-2 2v-879l21-12 23-12 16-8 21-10 32-13 38-14 48-15 37-10 40-9 52-10 57-9 56-7 61-6 68-5 55-3 86-3 97-2 90-1 221-2 107-2 66-2 88-4 66-4 64-5 62-6 61-7 65-9 67-11 44-8 57-12z" fill="#06706A"/>
<path transform="translate(1305,1700)" d="m0 0h43l56 2 55 4 80 8 195 23 68 7 65 5 4 1v298h-1810l4-3 21-10 27-11 36-13 38-12 41-11 47-11 70-14 183-34 55-11 57-13 47-12 62-18 52-17 43-16 46-19 29-13 33-16 23-12-19-8-10-6-22-12-19-8-16-5-14-3-18-2h-33l-21 2-20 5-13 5-13 7-11 10-8 7-6 5-4-3 1-4 12-11 12-10 16-9 18-6 18-4 10-1h50l19 3 21 6 21 9 27 14 12 7 18 6 6-1 19-10 28-13 27-11 43-14 32-8 35-7 33-5 37-4 32-2z" fill="#06706A"/>
<path transform="translate(815,1731)" d="m0 0h50l19 3 21 6 21 9 27 14 12 7 18 6 15 3 8 1h43l25-4 22-6 16-7 13-9 6-7 4-9 7 1-3 9-7 9-8 7-14 8-12 5-21 6-23 4-10 1h-33l-22-3-19-5-14-6-10-6-22-12-19-8-16-5-14-3-18-2h-33l-21 2-20 5-13 5-13 7-11 10-8 7-6 5-4-3 1-4 12-11 12-10 16-9 18-6 18-4z" fill="#085464"/>
<path transform="translate(1418,1243)" d="m0 0h48l34 2 49 5 50 7 42 7-1 7-39-6-57-8-39-4-29-2h-67l-29 3-26 5-23 7-18 8-11 6-14 10-13 12-10 13-10 17-9 20-6-2 3-10 8-16 9-15 13-15 7-7 13-10 15-9 18-8 21-7 29-6 26-3z" fill="#085664"/>
<path transform="translate(685,128)" d="m0 0 5 1 2 2 5 26-1 7-3 2-10 2-5 8-4 4-5-3-6-5-13 1-4-4-4-22v-9l4-3z" fill="#149477"/>
<path transform="translate(429,1737)" d="m0 0h6l5 25 7 19 9 16 8 11 9 10 5 5 11 10 18 12 23 12 22 8 25 6 23 3h25l17-3 10-4 5-5 5 1 1 4-7 6-11 5-15 3h-36l-16-2-25-6-18-6-20-9-14-8-17-12-15-13-10-11-9-13-8-14-6-14-5-16-2-10z" fill="#085664"/>
<path transform="translate(377,356)" d="m0 0 5 1 3 7 6 22-1 5-6 3-7 3-4 10-4 1-10-7-8 2-6-1-3-6-6-22 1-6 7-3z" fill="#095C67"/>
<path transform="translate(710,1794)" d="m0 0 5 1-2 11-12 48-5 1-2-4-4-2-5-5v-2h-3l-2 5-5 6-3-1-3-18-15-5 1-5 24-13 16-9 11-6z" fill="#085665"/>
<path transform="translate(308,134)" d="m0 0h10l10 4 8 9 1 3v12l-6 9-8 5-3 1h-14l-9-4-7-8-2-6v-7l5-10 9-6z" fill="#096368"/>
<path transform="translate(252,1263)" d="m0 0 23 10 5 3 10 4 22 10 1 2-30 14-28 13-3 1v-25l35-4-35-3z" fill="#085364"/>
<path transform="translate(535,129)" d="m0 0 6 2 5 3v3l-4 1 6 10 1 3v10l-4 8-7 6-4 2h-13l-8-5-5-6-2-5v-11l4-8 7-6 6-2h9l4 1z" fill="#149477"/>
<path transform="translate(0,1273)" d="m0 0 19 9 22 8 26 6 26 4 28 2h39l28-2 28-4h6l1 6-22 4-31 3h-60l-28-3-23-4-23-6-22-8-14-7z" fill="#095264"/>
<path transform="translate(625,352)" d="m0 0 7 1 19 7 2 2v6l-11 29-2 3-4 1-24-9-1-7 11-30z" fill="#149477"/>
<path transform="translate(796,153)" d="m0 0h8l8 3 7 8 2 6v8l-4 8-7 6-5 2h-9l-8-4-6-7-2-5v-9l4-8 7-6z" fill="#118D74"/>
<path transform="translate(1669,1254)" d="m0 0h39l1 1v41l-3 5-5 3h-31l-6-3-3-6v-6l2-2h29l1 1 1 10h7l2-1 1-38h-32v24h-4v-28z" fill="#085765"/>
<path transform="translate(1735,1283)" d="m0 0 8 1 43 7 55 9 29 6 1 1v6l-8-1-43-8-69-11-15-3-2-1z" fill="#085564"/>
<path transform="translate(417,141)" d="m0 0h6l2 2 2 19v13l-6-1-5-2h-5l-8 5h-3l-2-17-1-14 2-3z" fill="#149477"/>
<path transform="translate(336,1293)" d="m0 0 21 1 20 3 15 4 16 8 9 8 8 14 4 17 1 16h-7l-2-18-3-12-6-11-7-7-16-8-15-4-23-3-15-1z" fill="#085665"/>
<path transform="translate(254,361)" d="m0 0 5 1 12 10v5l-18 21-6-1-12-11 1-5 10-11 7-8z" fill="#095D67"/>
<path transform="translate(215,223)" d="m0 0 3 1-1 6-3 5v3l9 3 1 5h-2l-1 7h-2v4l-2 1-1 3-8-1-9-4-7-6-2-1 1-7 3-6 10-2 6-4z" fill="#149477"/>
<path transform="translate(680,233)" d="m0 0h4l1 2v34l5 1-1 4-17 2-12 1h-11v-4l4-1v-7l5-5 5-1 5 7 3-4 4-6h5l-1-22z" fill="#085564"/>
<path transform="translate(625,352)" d="m0 0 7 1 19 7 2 2v6l-11 29-2 3-4 1-24-9-1-7 11-30zm1 3-4 8-6 17 1 3h9l9 4 3 1 2 4 2-3 8-22v-4l-18-7z" fill="#095D67"/>
<path transform="translate(706,1802)" d="m0 0h2l-2 12-8 30-2 3-12-12 7-11 9-12 1-2-19 13-8 6-10-2-1-2 16-8 12-7 11-6z" fill="#139376"/>
<path transform="translate(685,128)" d="m0 0 5 1 2 2 5 26-1 7-3 2-10 2-5 8-4 4-5-3-6-5-13 1-4-4-4-22v-9l4-3zm-4 4-34 6-2 2 1 10 3 17 1 2h15l8 7 4-5 4-6 12-3v-8l-4-21-1-1z" fill="#086067"/>
<path transform="translate(299,235)" d="m0 0 4 1 8 6 6 8 3 16-1 4-19 4h-5l-3-13-6-5-3-11v-7h2l4 16 8 7 4 5 5 1-8-13-1-4h9l5-1-3-5-9-7z" fill="#085664"/>
<path transform="translate(560,249)" d="m0 0 9 1 1 1v14l-2 22-1 2h-10l-2-2 1-17 2-19z" fill="#086268"/>
<path transform="translate(535,129)" d="m0 0 6 2 5 3v3l-4 1 6 10 1 3v10l-4 8-7 6-4 2h-13l-8-5-5-6-2-5v-11l4-8 7-6 6-2h9l4 1zm-9 8-9 3-6 7-2 6 1 9 5 8 8 4h9l7-4 5-6 2-5-1-10-4-6-5-4z" fill="#086067"/>
<path transform="translate(320,260)" d="m0 0h6l6 14-1 3-15 3-25 4h-5v-17l6-2 1 7-1 4 20-4 11-2v-3h-2z" fill="#085765"/>
<path transform="translate(463,354)" d="m0 0h12l12 1 3 1v12l-1 5-26-2-1-1z" fill="#149477"/>
<path transform="translate(215,219)" d="m0 0 5 2 1 1v8l-2 6 8 4 1 6-6 12-4 6-5 1-16-6-11-10 2-9 3-6 1-1 11-2 5-2 2-5zm0 4-6 8-8 4-7 1-4 9v4l12 9 9 3h5l1-3 2-1v-4h2l1-7h2l-1-5-9-3 1-4 3-7-1-4z" fill="#085C66"/>
<path transform="translate(854,252)" d="m0 0h8l6 3 4 6-1 5-13 3-14 2-2-1v-8l4-6z" fill="#095C67"/>
<path transform="translate(463,351)" d="m0 0 18 1 10 1 2 2-1 19 1 5-7 1-23-2-6-2 1-4 1-3 2-16zm0 3-1 16 1 1 26 2 1-5v-12l-3-1-12-1z" fill="#095F67"/>
<path transform="translate(446,237)" d="m0 0h3v19l-12 12-4-4-1-2v-12l4-7 5-4z" fill="#095C67"/>
<path transform="translate(450,257)" d="m0 0h19l-3 9-8 7-3 1h-10l-6-3v-3z" fill="#095C67"/>
<path transform="translate(763,341)" d="m0 0 8 1 1 3 4 2 1 7-3 6-6 3-7-1-5-4-1-8 3-6z" fill="#149477"/>
<path transform="translate(543,262)" d="m0 0h8l3 2-1 21-2 3h-8l-3-2v-10l1-11z" fill="#086167"/>
<path transform="translate(417,141)" d="m0 0h6l2 2 2 19v13l-6-1-5-2h-5l-8 5h-3l-2-17-1-14 2-3zm-9 3-7 1-1 1 1 19 1 9 9-5 14 2-2-25-1-2z" fill="#086267"/>
<path transform="translate(849,230)" d="m0 0h6l4 2 3 5v6l-5 6-5 1-6-3-3-5 1-7z" fill="#095D67"/>
<path transform="translate(663,234)" d="m0 0h7l5 5 1 7-2 4-5 3-7-1-4-4-1-6 3-6z" fill="#085564"/>
<path transform="translate(837,255)" d="m0 0h5l-2 6v11l-11 2-5-1-1-6 3-6 5-4z" fill="#095E67"/>
<path transform="translate(451,237)" d="m0 0 6 1 6 4 4 5 2 7-1 1h-16l-1-1z" fill="#095E67"/>
<path transform="translate(796,153)" d="m0 0h8l8 3 7 8 2 6v8l-4 8-7 6-5 2h-9l-8-4-6-7-2-5v-9l4-8 7-6zm0 2-8 4-4 4-2 9v6l4 8 5 4 7 2h7l8-4 4-5 2-7v-7l-4-8-5-4-7-2z" fill="#076668"/>
<path transform="translate(213,220)" d="m0 0 2 1-2 7-7 6-5 2-7 1-4 12 5 2 7 6 6 2-1 2-8-1-11-9-2-2 2-9 3-6 1-1 11-2 5-2 2-5z" fill="#085B66"/>
<path transform="translate(629,366)" d="m0 0h7l5 5v6l-4 4-7 1-5-5v-7z" fill="#095C67"/>
<path transform="translate(625,352)" d="m0 0 7 1 19 7 2 2v6l-3 8-3-1 3-12-10-3-11-4h-3l-6 16-4 11-3-1 1-5 8-22z" fill="#086067"/>
<path transform="translate(829,237)" d="m0 0h7l5 5v6l-5 5-7-1-4-5 1-7z" fill="#095D67"/>
<path transform="translate(807,164)" d="m0 0 7 2v4l-5 3-2 4-2 1-1 2-4 2-4 1-5-5-2-7 3-2h4l3 4 6-7z" fill="#076B69"/>
<path transform="translate(762,339)" d="m0 0h9l7 6 1 11-3 6-6 3-3 1-7-1-6-6-2-9 4-8zm1 2-5 3-3 6 1 8 5 4 7 1 6-3 3-7-2-7-3-1-1-3z" fill="#086268"/>
<path transform="translate(562,252)" d="m0 0 5 1-1 18-1 12-1 3h-5v-11l2-22z" fill="#149477"/>
<path transform="translate(527,272)" d="m0 0h9l2 2-1 11-2 2-9-1-2-3 1-9z" fill="#086167"/>
<path transform="translate(774,364)" d="m0 0 4 1 1 8-11 1-7 2-2-7v-2h10z" fill="#095F67"/>
<path transform="translate(545,265)" d="m0 0 6 1-2 19-6-1 1-14z" fill="#149477"/>
<path transform="translate(682,146)" d="m0 0 3 1-1 3-27 5-4-1 1-3z" fill="#086067"/>
<path transform="translate(796,153)" d="m0 0h8l8 3 7 8 2 6v8l-4 8-1-3v-3h2v-13l-2-1-2-5-6-4-9-1h-5l-1 2-4-1 4-3z" fill="#086368"/>
<path transform="translate(262,1289)" d="m0 0 25 1 7 1v1l-24 2h-13z" fill="#149477"/>
<path transform="translate(676,139)" d="m0 0h8l-1 3-27 5-4-1v-2l13-3z" fill="#096067"/>
<path transform="translate(417,141)" d="m0 0 5 1v1l-21 3v24l-2-3-2-21 2-3z" fill="#096067"/>
<path transform="translate(413,150)" d="m0 0 5 2-1 5-5 4-6-5 1-5z" fill="#095E67"/>
<path transform="translate(463,351)" d="m0 0 18 1 10 1 2 2v8l-3-1v-6l-27-2z" fill="#086568"/>
<path transform="translate(762,339)" d="m0 0h9l7 6 1 11-4 1 1-4-2-7-3-3-8-1-3 2-3-1 1-2z" fill="#086067"/>
<path transform="translate(373,375)" d="m0 0h5v2l-21 6-8 1 1-3z" fill="#149477"/>
<path transform="translate(372,367)" d="m0 0h4l-1 3-26 7h-2v-3z" fill="#149477"/>
<path transform="translate(623,356)" d="m0 0 1 4-8 23-3-1 1-5 7-20z" fill="#086368"/>
<path transform="translate(531,145)" d="m0 0h3l-1 5-4 7-5-1-8-5 1-2 5 1 5 2z" fill="#086067"/>
<path transform="translate(671,156)" d="m0 0 3 1-1 3-11 2h-7v-3z" fill="#086067"/>
<path transform="translate(302,157)" d="m0 0h9v7h-8z" fill="#149477"/>
<path transform="translate(315,157)" d="m0 0h8v6l-1 1h-7z" fill="#149477"/>
<path transform="translate(299,235)" d="m0 0 4 1 8 6 3 4-1 4-2-1-3-5-9-7z" fill="#085D66"/>
<path transform="translate(365,385)" d="m0 0h3v3l-14 4h-3v-3z" fill="#149477"/>
<path transform="translate(292,157)" d="m0 0h7l1 7h-7z" fill="#149477"/>
<path transform="translate(528,275)" d="m0 0h6v8h-6z" fill="#149477"/>
<path transform="translate(327,157)" d="m0 0h7l-1 6-1 1h-6z" fill="#149477"/>
<path transform="translate(315,148)" d="m0 0h8v6h-8z" fill="#149477"/>
<path transform="translate(303,148)" d="m0 0h8v6h-8z" fill="#149477"/>
<path transform="translate(283,238)" d="m0 0h2l4 17-2 2-3-7-1-5z" fill="#085A66"/>
<path transform="translate(421,141)" d="m0 0 4 2 1 14-3 1-1-14h-6v-1l5-1z" fill="#076768"/>
<path transform="translate(213,220)" d="m0 0 2 1-2 7-7 6v-3l6-10z" fill="#085965"/>
<path transform="translate(807,164)" d="m0 0 7 2v4l-5 3-6 5-2-1 8-8 1-2h-2z" fill="#076868"/>
<path transform="translate(326,148)" d="m0 0h6l2 3v3h-7z" fill="#149477"/>
<path transform="translate(293,148)" d="m0 0h7l-1 6h-7z" fill="#149477"/>
<path transform="translate(809,167)" d="m0 0v3l-10 10-7-6 2-2 4 4 4-2z" fill="#149477"/>
<path transform="translate(679,129)" d="m0 0h6l-1 3-12 2 1-4z" fill="#086368"/>
<path transform="translate(788,157)" d="m0 0 2 1-5 5-2 9h-2l-1 3 1-9 4-6z" fill="#086167"/>
<path transform="translate(756,342)" d="m0 0 2 1-1 5-1 4v5l-3-3-1-4z" fill="#076568"/>
<path transform="translate(567,268)" d="m0 0h1v12l-3 1v-10z" fill="#086067"/>
<path transform="translate(820,170)" d="m0 0h1v8l-4 8-1-3v-3h2l1-7z" fill="#076969"/>
<path transform="translate(315,138)" d="m0 0 4 2 2 5h-6z" fill="#149477"/>
<path transform="translate(309,138)" d="m0 0h2v7h-6l2-5z" fill="#149477"/>
<path transform="translate(796,153)" d="m0 0h8l-2 2-8 1-1 2-4-1 4-3z" fill="#076A69"/>
<path transform="translate(305,167)" d="m0 0h6v7l-4-2z" fill="#149477"/>
<path transform="translate(815,185)" d="m0 0v3l-5 4-2 1h-6l1-2h4l1-2 5-2z" fill="#086167"/>
<path transform="translate(793,189)" d="m0 0 1 2 8 1 3 2h-9l-4-2z" fill="#076A69"/>
<path transform="translate(411,168)" d="m0 0 4 2-4 2-4 3h-2l1-4z" fill="#076768"/>
<path transform="translate(315,167)" d="m0 0h6l-3 5-3 2z" fill="#149477"/>
</svg>
